<svg xmlns="http://www.w3.org/2000/svg" width="210" height="135" viewBox="0 0 210 135">
  <defs>
    <style>
      .cls-1 {
        fill: #ec1c24;
        stroke: #07070d;
        stroke-miterlimit: 10;
      }
    </style>
  </defs>
  <g id="Indicators">
    <g>
      <path class="cls-1" d="M78.15,58.9C70,49.94,63,61.55,63,61.55v.83c-3.76-4.05-9.4-8-15-4C37.17,66.09,63,90,63,90l.11-.57v.82S86.27,67.86,78.15,58.9Z"/>
      <path class="cls-1" d="M162.51,58.44c-8.12-9-15.15,2.65-15.15,2.65v.84c-3.75-4.06-9.39-8-15-4-10.79,7.7,15,31.55,15,31.55l.12-.57v.83S170.64,67.4,162.51,58.44Z"/>
      <path class="cls-1" d="M120.39,59.14c-8.12-9-15.15,2.65-15.15,2.65v.84c-3.75-4.06-9.39-8-15-4-10.79,7.7,15,31.55,15,31.55l.12-.57v.83S128.52,68.1,120.39,59.14Z"/>
    </g>
  </g>
</svg>
