<svg xmlns="http://www.w3.org/2000/svg" xmlns:xlink="http://www.w3.org/1999/xlink" width="135" height="135" viewBox="0 0 135 135">
  <defs>
    <style>
      .cls-1 {
        stroke: #020102;
        stroke-miterlimit: 10;
        fill: url(#linear-gradient);
      }
    </style>
    <linearGradient id="linear-gradient" x1="75.43" y1="96.57" x2="94.29" y2="57.08" gradientUnits="userSpaceOnUse">
      <stop offset="0.38" stop-color="#15572d"/>
      <stop offset="1" stop-color="#2c8742"/>
    </linearGradient>
  </defs>
  <g id="Shrub">
    <path class="cls-1" d="M112.45,68.36c-4.22,1.69-1.56-2.17-1.88-6.88.19-15-9.58-25.84-17.48-18-1.29-7.56-5.92-13.14-11-14.35A8.39,8.39,0,0,0,79,28.89c-1,.12-7.46-1.27-3,1-4.46-2.25-4.45-2.26-3.2-1.91a11.79,11.79,0,0,0-3.35-.51c2.1.16,1.8.14-3.31.76,5-.59-2.13,1.1-3.12,1.91A16.65,16.65,0,0,0,60.27,33,23.76,23.76,0,0,0,56,46.58c-4.73-5-12.26-3.23-15.72,3.63C26,39,10.32,67.33,20.9,86.65c-29.25,19.81,18.22,40,28.2,20.69,9.35,7.4,22.9-.31,31.79-.2,3.81-1.62,3.13,9.14,7.42,8.11,6.23-.83,2-10,8.48-5.29,2.13,0,3.89-2.43,4.1-5.54,3.56,2.07,7.8,1.44,11.56,2.72C125.87,107.53,125.91,68,112.45,68.36Zm23.71,53.56c.43.47-.35.5-.59.78C135.76,122.44,136,122.19,136.16,121.92Zm-4.28,5.14a14.32,14.32,0,0,0-.89,2.24C130.36,128.11,131.25,127.77,131.88,127.06Z"/>
  </g>
</svg>
