<svg xmlns="http://www.w3.org/2000/svg" xmlns:xlink="http://www.w3.org/1999/xlink" width="135" height="135" viewBox="0 0 135 135">
  <defs>
    <style>
      .cls-1 {
        fill: none;
      }

      .cls-2 {
        clip-path: url(#clip-path);
      }

      .cls-3, .cls-4 {
        fill: #984322;
      }

      .cls-4 {
        stroke: #000;
        stroke-miterlimit: 10;
      }

      .cls-5 {
        fill: #2c8742;
      }

      .cls-6 {
        fill: #3cb44a;
      }

      .cls-7 {
        fill: #13572c;
      }

      .cls-8 {
        fill: #070908;
      }
    </style>
    <clipPath id="clip-path">
      <rect class="cls-1" x="711.93" y="-347.81" width="1133.3" height="755.44"/>
    </clipPath>
  </defs>
  <g id="trees">
    <g>
      <g>
        <path class="cls-3" d="M66.38,73.66C81,78.22,93,71,93.68,57.24a.44.44,0,0,1,.6-.45h0a.92.92,0,0,1,.57.87C94.17,72,81.63,79.54,66.39,74.78a1,1,0,0,1-.7-.79h0C65.69,73.69,66,73.54,66.38,73.66Z"/>
        <path class="cls-4" d="M66.38,73.66C81,78.22,93,71,93.68,57.24a.44.44,0,0,1,.6-.45h0a.92.92,0,0,1,.57.87C94.17,72,81.63,79.54,66.39,74.78a1,1,0,0,1-.7-.79h0C65.69,73.69,66,73.54,66.38,73.66Z"/>
      </g>
      <g>
        <path class="cls-3" d="M66.39,131.31c-6,0-12.13-1.08-12.13-2.88L59.38,62c0-2.45,3.21-4.49,7-4.49s7,2,7,4.45l3.67,66.48C77.06,130.32,71.69,131.31,66.39,131.31Z"/>
        <path d="M66.39,58c3.53,0,6.5,1.81,6.5,3.95V62l3.66,66.42c0,1.14-4.12,2.36-10.17,2.36-6.5,0-11.55-1.26-11.63-2.35l5.12-66.41V62c0-2.14,3-3.95,6.51-3.95m0-1c-4.13,0-7.51,2.23-7.51,4.95l-5.12,66.45c0,2.72,8.5,3.38,12.63,3.38s11.17-.66,11.17-3.38L73.89,62c0-2.72-3.37-4.95-7.5-4.95Z"/>
      </g>
      <ellipse class="cls-5" cx="25.94" cy="37.33" rx="23.8" ry="21.13"/>
      <ellipse class="cls-6" cx="101.37" cy="20.75" rx="10.25" ry="9.1"/>
      <ellipse class="cls-7" cx="65.67" cy="34.89" rx="35.7" ry="31.7"/>
      <g>
        <path class="cls-3" d="M85.1,73.41c8.51,1.82,16.93-2.68,19.1-10.21a.39.39,0,0,1,.44-.28h0a.35.35,0,0,1,.24.45C102.61,71.23,93.84,75.92,85,74c-.23,0-.38-.23-.34-.4h0A.39.39,0,0,1,85.1,73.41Z"/>
        <path class="cls-4" d="M85.1,73.41c8.51,1.82,16.93-2.68,19.1-10.21a.39.39,0,0,1,.44-.28h0a.35.35,0,0,1,.24.45C102.61,71.23,93.84,75.92,85,74c-.23,0-.38-.23-.34-.4h0A.39.39,0,0,1,85.1,73.41Z"/>
      </g>
      <g>
        <path class="cls-3" d="M61.13,82.16c-10,2.24-19.75-3-22.19-11.86a.43.43,0,0,0-.5-.32h0a.44.44,0,0,0-.29.54c2.54,9.25,12.73,14.7,23.13,12.36.27-.06.45-.28.4-.48h0A.44.44,0,0,0,61.13,82.16Z"/>
        <path class="cls-4" d="M61.13,82.16c-10,2.24-19.75-3-22.19-11.86a.43.43,0,0,0-.5-.32h0a.44.44,0,0,0-.29.54c2.54,9.25,12.73,14.7,23.13,12.36.27-.06.45-.28.4-.48h0A.44.44,0,0,0,61.13,82.16Z"/>
      </g>
      <ellipse class="cls-5" cx="103.2" cy="47.73" rx="29.66" ry="24.06"/>
      <ellipse class="cls-6" cx="40.59" cy="57" rx="19.77" ry="19.67"/>
      <ellipse class="cls-8" cx="60.36" cy="99.75" rx="2.2" ry="1.95"/>
    </g>
  </g>
</svg>
