<svg xmlns="http://www.w3.org/2000/svg" width="135" height="135" viewBox="0 0 135 135">
  <defs>
    <style>
      .cls-1 {
        fill: #2c8742;
      }

      .cls-2 {
        fill: #13572c;
      }

      .cls-3 {
        fill: #3cb44a;
      }

      .cls-4, .cls-5 {
        fill: #984322;
      }

      .cls-5 {
        stroke: #000;
        stroke-miterlimit: 10;
      }

      .cls-6 {
        fill: #954d22;
      }

      .cls-7 {
        fill: #68bd5d;
      }

      .cls-8 {
        fill: #070908;
      }
    </style>
  </defs>
  <g id="trees">
    <g>
      <ellipse class="cls-1" cx="43.52" cy="25.29" rx="9.86" ry="9.55"/>
      <ellipse class="cls-1" cx="93.57" cy="31.85" rx="9.11" ry="8.7"/>
      <ellipse class="cls-2" cx="104.33" cy="42.12" rx="10.91" ry="10.41"/>
      <ellipse class="cls-3" cx="33.96" cy="37.84" rx="13" ry="12.55"/>
      <ellipse class="cls-3" cx="91.48" cy="43.97" rx="7.62" ry="9.41"/>
      <g>
        <path class="cls-4" d="M85.66,67.83c8.15,2,16.12-2.61,18.11-10.39a.35.35,0,0,1,.41-.28h0a.36.36,0,0,1,.23.46C102.34,65.74,94,70.52,85.54,68.47a.4.4,0,0,1-.33-.42h0A.36.36,0,0,1,85.66,67.83Z"/>
        <path class="cls-5" d="M85.66,67.83c8.15,2,16.12-2.61,18.11-10.39a.35.35,0,0,1,.41-.28h0a.36.36,0,0,1,.23.46C102.34,65.74,94,70.52,85.54,68.47a.4.4,0,0,1-.33-.42h0A.36.36,0,0,1,85.66,67.83Z"/>
      </g>
      <g>
        <path class="cls-4" d="M70.11,77.6C82.76,77.51,89.74,68.38,86,56.86c-.1-.29,0-.53.32-.53h0a.84.84,0,0,1,.71.57c3.92,12-3.36,21.54-16.55,21.62a.85.85,0,0,1-.78-.47h0C69.59,77.8,69.79,77.6,70.11,77.6Z"/>
        <path class="cls-5" d="M70.11,77.6C82.76,77.51,89.74,68.38,86,56.86c-.1-.29,0-.53.32-.53h0a.84.84,0,0,1,.71.57c3.92,12-3.36,21.54-16.55,21.62a.85.85,0,0,1-.78-.47h0C69.59,77.8,69.79,77.6,70.11,77.6Z"/>
      </g>
      <g>
        <path class="cls-6" d="M66.68,118.76c-4.72,0-9.81-.94-9.81-2.46L61.05,58c0-2.11,2.58-3.87,5.63-3.87S72.3,55.93,72.3,58l3,58.32C75.29,117.92,71,118.76,66.68,118.76Z"/>
        <path d="M66.68,54.67c2.78,0,5.12,1.53,5.12,3.34v.05l3,58.26c0,.94-3.29,1.94-8.11,1.94-5.54,0-9.24-1.16-9.31-1.94l4.18-58.24V58c0-1.81,2.35-3.34,5.13-3.34m0-1h0c-3.37,0-6.13,1.95-6.13,4.34L56.37,116.3c0,2.39,6.94,3,10.31,3h0c3.37,0,9.11-.57,9.11-3L72.8,58c0-2.39-2.75-4.34-6.12-4.34Z"/>
      </g>
      <ellipse class="cls-1" cx="66.08" cy="39.84" rx="19.72" ry="22.82"/>
      <g>
        <path class="cls-4" d="M43.19,58.24c-8.15,2-16.12-2.61-18.11-10.4a.35.35,0,0,0-.41-.28h0a.37.37,0,0,0-.23.47c2.07,8.12,10.38,12.9,18.87,10.84a.38.38,0,0,0,.33-.41h0A.36.36,0,0,0,43.19,58.24Z"/>
        <path class="cls-5" d="M43.19,58.24c-8.15,2-16.12-2.61-18.11-10.4a.35.35,0,0,0-.41-.28h0a.37.37,0,0,0-.23.47c2.07,8.12,10.38,12.9,18.87,10.84a.38.38,0,0,0,.33-.41h0A.36.36,0,0,0,43.19,58.24Z"/>
      </g>
      <g>
        <path class="cls-4" d="M59.34,68c-12.65-.08-19.64-9.21-15.87-20.73.1-.3,0-.54-.33-.54h0a.86.86,0,0,0-.7.57C38.51,59.32,45.8,68.84,59,68.93a.87.87,0,0,0,.78-.47h0C59.86,68.21,59.66,68,59.34,68Z"/>
        <path class="cls-5" d="M59.34,68c-12.65-.08-19.64-9.21-15.87-20.73.1-.3,0-.54-.33-.54h0a.86.86,0,0,0-.7.57C38.51,59.32,45.8,68.84,59,68.93a.87.87,0,0,0,.78-.47h0C59.86,68.21,59.66,68,59.34,68Z"/>
      </g>
      <ellipse class="cls-3" cx="99.99" cy="54.81" rx="8.52" ry="8.13"/>
      <ellipse class="cls-1" cx="84.16" cy="52.53" rx="10.91" ry="10.41"/>
      <ellipse class="cls-7" cx="45.91" cy="43.97" rx="14.79" ry="14.12"/>
      <ellipse class="cls-1" cx="28.58" cy="46.25" rx="8.81" ry="8.41"/>
      <ellipse class="cls-8" cx="69.52" cy="95.88" rx="1.79" ry="1.71"/>
    </g>
  </g>
</svg>
